<?xml version="1.0" encoding="UTF-8"?>
<svg xmlns="http://www.w3.org/2000/svg" version="1.1" height="32" width="108">
	<rect height="32" width="108" y="0" x="0" fill="#0096c5"/>
	<path fill="#FFF" d="m3.9972,4.6107,0,23.357,8.7,0c5.7889-0.0213,11.64-4.1594,11.474-12.01-0.16564-7.8508-5.789-11.346-11.474-11.346zm4.6337,4.2352,4.35,0c2.8473,0,5.6855,2.2588,5.7685,7.301,0.0829,5.0422-2.869,7.6981-5.7685,7.7118h-4.35z"/>
	<path fill="#FFF" d="m26.047,11.571,4.3686,0,0,16.39-4.3686,0z"/>
	<path fill="#FFF" d="m30.567,6.1307c0,1.1053-1.0446,2.0013-2.3332,2.0013s-2.3332-0.89602-2.3332-2.0013,1.0446-2.0013,2.3332-2.0013,2.3332,0.89602,2.3332,2.0013z"/>
	<path fill="#FFF" d="m44.337,15.001,0-3.2058s-2.0543-0.63673-4.484-0.63673-6.5827,0.96699-6.5827,5.1519c0,4.8234,7.6444,4.9082,7.6444,7.1339,0,3.3751-7.6444,0.36121-7.6444,0.36121v3.296s2.6924,0.99369,4.8972,0.99369,7.3403-1.0357,7.3403-5.0573c0-4.0854-8.0341-5.305-8.0341-7.0559,0-1.4954,1.5637-1.7881,3.396-1.7938s3.4673,0.81283,3.4673,0.81283z"/>
	<path fill="#FFF" d="m59.507,15.721,0-3.7801s-1.2591-0.78483-4.3866-0.78483-8.6614,2.0041-8.6614,8.6281,5.1417,8.3086,8.4999,8.3086,4.5481-0.98104,4.5481-0.98104v-3.3087s-1.5133,1.2191-3.6928,1.2191-5.4906-1.5449-5.4484-5.2379,3.1965-5.1862,5.4484-5.192c2.2519-0.0059,3.6928,1.1288,3.6928,1.1288z"/>
	<path fill="#FFF" d="m61.537,11.481,4.9984-0.0451-0.045,10.724c0,1.9648,1.3329,2.7121,2.8106,2.7121s3.3974-0.79468,3.3587-2.7121v-10.499h4.1879v16.209h-4.1879v-2.0318s-1.8789,2.2579-5.4487,2.2579-5.6739-1.9857-5.6739-5.4362z"/>
	<path fill="#FFF" d="m79.637,11.751,0,3.0777,7.8604,0-8.806,10.829,0,2.3027,14.14,0,0-3.3413-7.6321,0,8.1724-11.107,0-1.7608z"/>
	<path fill="#FFF" d="m97.787,3.0007,6.2143,0-1.441,16.706-3.422,0z"/>
	<path fill="#FFF" d="m98.347,23.691,5.0439,0,0,5.3098-5.0439,0z"/>
</svg>
