<svg width="400" height="400" xmlns="http://www.w3.org/2000/svg"><g fill-rule="evenodd"><path d="M188 7a166 166 0 01-17 2l-4 1-5 1h-3l-4 1-2 1-3 1h-3l-3 1-2 1-3 1-2 1h-2l-2 1-2 1-2 1h-2l-2 1-1 1-2 1-2 1h-2l-1 1-1 1-2 1-2 1h-2l-1 1-1 1-1 1h-1l-5 3-1 1h-1l-3 2-2 2h-2l-1 2a102 102 0 00-5 3 47 47 0 01-6 5 272 272 0 00-38 43 68 68 0 00-7 11v1l-1 2-1 1-1 1v2l-1 1-1 2-1 2v1l-1 2-1 2-1 2-1 2v2l-1 2-1 2-1 3-1 2v3l-1 2-1 2-1 3v3l-1 4-1 4-1 4-1 4v5a352 352 0 004 80l1 4v3l1 2 1 2v3l1 2 1 3 1 2 1 2v1l1 3 1 2 1 1 1 2v2l1 1a147 147 0 0025 40 177 177 0 0060 47l5 3 1 1h2l2 1 2 1 1 1h2l3 1 6 3 3 1h2l3 1 2 1 3 1h3l4 1 3 1 4 1 6 1h5a278 278 0 0067-4h3l3-1 3-1 3-1 6-2 3-1 2-1 2-1h2l2-1 2-1 2-1 1-1h2l1-1 2-1 2-1h1l1-1 2-1 1-1 3-1a75 75 0 009-6h1a214 214 0 0115-12l3-2 4-4a206 206 0 0044-58l1-1 2-5v-1l1-3 1-1 1-2 1-2v-3l1-2 1-2 1-2v-3l1-3 1-3 1-3 1-3v-3l1-5 1-4 1-6 1-7a485 485 0 00-5-72l-1-3-1-4-1-3v-2l-1-2-1-3-1-2-1-2v-2l-1-2-1-2-1-2v-2l-1-2-1-1-1-2-1-1v-2l-1-2-1-1-1-2v-1l-1-1-2-3-1-3-1-1-1-1-1-3-3-3a107 107 0 01-6-9l-1-1-1-2a90 90 0 01-7-8l-1-1a342 342 0 00-36-31l-3-2-2-1-1-1-1-1h-1l-2-1-1-1-2-1h-1l-2-1-1-1-1-1-2-1-2-1-2-1h-1l-2-1-1-1h-2l-3-1-1-1-3-1-2-1h-2l-2-1-3-1-2-1-3-1h-2l-3-1-3-1-3-1h-4l-5-1-4-1-8-1-9-1h-23m27 17l6 1h6l5 1 4 1 3 1 3 1h3l3 1 2 1 3 1 2 1 6 2 3 1h1l2 1 2 1 2 1h1l2 1 2 1 1 1 2 1h1l1 1 2 1 1 1h1l3 2 3 2 4 2v1h2a117 117 0 008 7 149 149 0 008 7l2 2a112 112 0 007 6l4 4a237 237 0 0116 20 29 29 0 013 5l1 1 1 2v1l1 1 1 1v2l2 2 1 2 1 3 1 2 1 2 1 1 1 2v2l1 2 1 2 1 2 1 2v2l1 3 1 1v3l1 3 1 3 1 3 1 4 1 3v4l1 6 1 5a277 277 0 01-3 56l-1 3-1 3v3l-1 3-1 2-1 2-1 3v2l-1 2-1 2-1 1v3l-1 2-1 1-1 2-3 6a211 211 0 00-7 13l-1 1-1 1-2 4a25 25 0 01-3 4 993 993 0 00-8 10 207 207 0 01-40 35l-2 1-3 2-2 1-2 1-1 1h-2l-1 1-2 1-1 1h-2l-1 1-3 1-1 1-2 1-2 1h-2l-3 1-1 1-2 1-3 1h-3l-2 1-3 1-3 1h-3l-3 1-4 1-5 1h-6l-7 1a147 147 0 01-60-6l-3-1-3-1h-2l-3-1-1-1-2-1-3-1h-2l-2-1-1-1h-1l-5-3h-2l-1-1-2-1-2-1-1-1-2-1h-1l-1-1-1-1-3-1-3-2-2-2-2-1-4-3h-1l-1-1-1-2-7-5-4-3a153 153 0 01-34-43v-1l-1-2-1-1v-1l-3-6-1-1-1-2v-1l-1-2-1-2-1-2v-2l-1-2-1-2-1-3-1-2v-3l-1-2-1-3-1-3v-3l-1-4-1-4-1-5a215 215 0 015-71l1-2v-3l1-2 1-3 1-2v-2l1-2 1-2 1-2 1-2v-1l1-2 1-1 3-6v-1l1-2 1-1 1-1v-1l1-2 2-3 1-2 2-3 2-2 1-2a102 102 0 005-7 9215 9215 0 0022-23 132 132 0 007-6 303 303 0 0014-10l3-2 1-1h1l1-1 3-1 1-1 1-1 2-1h2l1-1 2-1 2-1 4-2h2l2-1 2-1 2-1 2-1 3-1h1l3-1 3-1 3-1h3l3-1 3-1 4-1 4-1h4a38 38 0 0010-1h29m108 106v1l1-1v-2l-1 2m-1 3h1l-1-1v1m-6 6v1l1-1h-1m-2 2v1l1-1v-1l-1 1m-2 1l1 1h1l-2-1m-2 2v1l1-1h-1m-2 1v1h1v-1h-1m-3 2l1 1 1-1h-1-1m-3 1l1 1h1l-1-1h-1m-2 2l1 1v-1h-1m-2 1v1l1-1h-1m-3 2l1 1v-1h-1m-3 2l1 1 1-1h-2m-3 2h2l-1-1-1 1m-2 1v1l1-1h-1m-3 2h1c1 0 1-1-1-1v1m-4 1l2 1c1 0 1-1-1-2l-1 1m-2 1l1 1v-1h-1m-3 2v1l1-1h-1m-3 2l1 1 1-1h-2m-3 1l1 1 1-1h-2m-3 2l1 1 1-1-1-1-1 1m-2 2h1l-1-1v1m-3 1v1l1-1h-1m-3 1c-1 1 0 1 1 1h1l-2-1m-3 2c-1 1-1 1 1 1l1-1h-2m-3 2c-1 1-1 1 1 1l1-1-1-1-1 1m-3 1c-1 1-1 1 1 1h1l-2-1m-2 1v1h1l-1-1m-4 2l1 1h1l-2-1m-2 2v1l1-1h-1m-3 1c-1 1 0 1 1 1s1 0 0 0l-1-1m-3 2c-1 1-1 1 1 1l1-1h-1-1m-3 1c-1 1 0 1 1 1h1l-2-1m-3 2l-1 1-1 3-1 3-1 2v2l-1 2-1 2-1 2v2l-1 2-1 1-1 1-1 2v1l-1 1-1 2-1 1v1l-1 2-1 1-1 1v1l-3 3-1 2-1 2-2 2a207 207 0 01-30 33l2-1 2-1v-1h1l1-1 1-1v-1h1l1-1v-1a137 137 0 0017-16l4-6 1-1 1-1a53 53 0 005-7h1l1-2 1-1v-1l1-1 1-2v-1l1-1 1-2 1-1 1-1 1-2v-1l1-2 1-1 1-2v-2l1-1 1-2 1-3 1-2v-3l1-3v-2h-1m-55 79h0m-2 1l1 1v-1h-1" fill="#539d3a"/><path d="M0 200v200h400v-53a790 790 0 000-54V0H0v200M220 7h6l6 1 4 1 4 1h2l5 2h2l3 1 3 1h2l3 1 2 1 2 1h2l2 1 2 1 3 1 1 1h2l2 1 2 1 1 1 2 1h1l2 1 1 1 2 1 1 1h1l2 1 1 1 1 1h2l3 2 2 2 2 1 2 1 4 3 1 1 1 1a86 86 0 005 3 28 28 0 016 5l3 3 2 2h1l2 3 1 1h1v1l1 1 4 4v1l3 2 3 3 2 3 1 1 5 7 4 5 1 2 1 1v1l1 1 1 1 1 2 1 1v1l2 4 1 1 1 2 1 1 1 2v1l1 2 1 2 1 1 1 2v2l1 1 1 3 1 1v2l1 2 1 2 1 2 1 3v2l1 2 1 3 1 3 1 2v4l1 3 1 4 1 4v5l1 5a387 387 0 01-4 79v3l-1 3-1 3-1 1-1 4v1l-1 4-1 1-1 2v2l-1 3-1 1-1 2-1 2v1l-1 2-1 2-1 2-1 2v1l-1 1-1 1-1 2v1l-1 2-1 1-1 1v2l-1 1-1 1-1 1-1 2v1l-1 1-1 1-2 4-1 1-1 1-1 1-4 5-1 2-1 1h-1a34 34 0 01-6 8 117 117 0 01-20 18l-3 3-2 1-1 1-1 1h-1l-1 1-1 1-1 1-4 2-1 1-1 1h-1l-2 1-1 1-1 1h-2l-1 1-2 1v1l-2 1h-2l-1 1-2 1-1 1-2 1h-1l-2 1-2 1-2 1h-2l-2 1-1 1-2 1-3 1h-2l-2 1-2 1-3 1-3 1h-3l-2 1-3 1-4 1h-3l-5 1-4 1-7 1-8 1a159 159 0 01-46-3l-4-1h-4l-3-1-4-1-2-1h-3l-3-1-2-1-3-1-2-1h-2l-2-1-2-1-2-1-2-1h-2l-2-1-1-1-2-1h-1l-2-1-2-1-2-1-1-1h-1l-2-1-2-1-1-1h-1l-4-3-1-1h-1l-2-1a1361 1361 0 00-47-44l-1-1a354 354 0 01-9-13v-1l-3-4-1-1v-1l-1-1-1-2-1-2-1-1v-1l-1-2-1-1-1-2-1-2v-2l-1-2-1-1-1-2v-2l-1-2-1-2-1-2-1-2v-2l-1-3-1-2-1-3-1-2v-3l-1-3-1-4-1-3v-5l-1-4-1-6-1-6a335 335 0 014-69l1-3 1-3v-3l1-3 1-3 1-2 1-2v-3l1-2 1-2 1-2 1-2v-2l1-1 1-2 1-2 1-2v-1l1-2 1-2 1-1v-2l1-1 1-2 2-3 1-1 2-4 1-2 1-1 1-1 1-3 3-3 1-2 1-1 1-1 1-1 3-4a44 44 0 003-5l3-3a173 173 0 0145-36l1-1 2-1 1-1 2-1h1l2-1 1-1 1-1h2l2-1 1-1 2-1h1l2-1 2-1 2-1 2-1h2l2-1 2-1 3-1 2-1h3l2-1 3-1 3-1h3l3-1 4-1 4-1 6-1h5c3-1 39-2 42 0m-26 18a229 229 0 01-18 1l-5 1-4 1-3 1h-4l-3 1-3 1-3 1-2 1h-2l-3 1-2 1-2 1h-2l-2 1-2 1-2 1-2 1h-2l-1 1-2 1-1 1-2 1h-2l-1 1-2 1h-1l-1 1-4 3-2 1h-1l-1 1-1 1-1 1-2 1-1 1-1 1-2 1h-1l-1 1-4 3-1 2h-1a297 297 0 00-34 39l-1 1-1 1-1 2v1l-1 1-1 2-1 1-1 2v1l-1 1-1 2-1 1v2l-1 2-1 2-1 1-1 2v2l-1 2-1 2-1 2v2l-1 2-1 3-1 2-1 3v2l-1 4-1 4-1 4v3l-1 5-1 6a258 258 0 002 52l1 4 1 3 1 3v3l1 3 1 3 1 1v3l1 2 1 2 1 2 1 3v1l1 1 1 3 1 1 1 2 1 2v1l1 1 2 5 1 1 1 2 1 1v1l3 4 1 1v1l1 1 1 1 1 2 2 3 1 1v1l1 1 4 5 1 1 1 1 3 3a1244 1244 0 0124 23l3 1 2 2 1 1 1 1h1l2 1 1 1 2 1 2 1 2 2 3 1 2 1 1 1 1 1h2l1 1 2 1 2 1 2 1h2l2 1 1 1 2 1h2l2 1 3 1 2 1 2 1h3l3 1 2 1 3 1h3l5 2h5l5 1a302 302 0 0060-3l5-1 2-1 2-1h3l2-1 3-1 2-1 2-1h2l2-1 2-1 2-1h2l2-1 1-1 2-1 1-1h1l2-1 2-1 2-1 1-1h1l1-1 2-1h1l1-1 1-1 2-1 3-2 3-2 2-1 1-1v-1l1-1 2-1h1l1-1a512 512 0 0039-44l1-2v-1l1-2 1-2 3-5 1-2 1-1v-2l1-1 1-2 1-2 1-2v-2l1-2 1-1 1-2 1-3v-3l1-2 1-3 1-2v-4l1-3 1-4 1-4v-4l1-8 1-9a101 101 0 00-1-26l-1-8v-4l-1-5-1-3-1-4v-3l-1-3-1-3-1-2v-2l-1-2-1-2-1-2-1-2v-2l-1-2-1-2-1-2-1-2v-1l-1-2-1-1-1-2v-1l-1-2-1-1-3-4v-2l-1-1-2-4-2-2-1-2-1-1-1-1-1-1v-1l-1-1-1-1-1-1-1-1-1-2-2-3-2-2-1-1-5-5a45 45 0 01-5-5l-1-1-1-1-1-1-3-3-3-2-2-1-1-1-1-1-1-1-1-1h-1l-1-1-1-1-1-1-2-1h-1l-1-1-1-1-1-1-4-2-1-1-2-1h-1l-1-1-2-1-2-1-1-1-5-2-1-1h-2l-2-1-2-1-1-1-2-1-3-1h-2l-1-1-3-1h-3l-2-1-3-1-3-1-3-1h-3l-4-1-4-1-5-1h-4l-12-1h-13m120 80l2 1c2 0 4 1 5 3h1v1l2 1 1 3 1 2 1 9-1 6-1 2v1l-1 1-3 3-5 5a164 164 0 00-4 3l-5 3v1h-1l-1 1-2 1-1 1-2 1-3 1-2 2-1 1h-2l-1 1-2 1-1 1h-1l-2 1-2 1v1h-1l-2 1-2 1-1 1-2 1-1 1h-2l-1 1-1 1-2 1h-1l-2 1-1 1-2 1-1 1h-2l-1 1-2 1-1 1-2 1h-1l-1 1-2 1-1 1h-1l-2 1-2 1-1 1h-1l-2 1-1 1-2 1-1 1-3 3-1 1-1 3-1 2v2l-1 2-1 2-1 2v2l-1 2-1 1-1 2-1 1v2l-1 1-1 1-1 2v1l-1 1a21 21 0 01-4 5l-2 3-1 2-1 1-1 1-1 1-3 4-3 3-2 2-1 2-1 1a118 118 0 01-17 17 44 44 0 01-5 4l-3 3-2 1-1 1-1 1-1 1-1 1-3 2-3 3-2 1-5 4-4 3h-1l-1 1-1 1-2 1-1 1a763 763 0 01-7 4l-3-2a142 142 0 00-9-15v-1l-3-4-1-1-1-1v-1l-1-1-1-2-8-11-9-13-1-3a190 190 0 00-11-16 124 124 0 01-8-14l2-2 4-2 3-2a90 90 0 0114-8 296 296 0 0017-7l5-1 4-2 3-1h2l2-1 2-1 4-1 13-4 5-1a284 284 0 0020-4l4-1 5-1h3l4-1 6-1 6-1 3-1 2-1 2-1h1l1-1 2-2 2-1 1-1 1-1 1-1 2-1 3-3 2-2 5-3a41 41 0 005-4l4-3v-1h1l1-1 5-4 4-3 4-4 2-1 2-2 1-1 3-2 1-1h1v-1l6-4 1-1 1-1h1l1-1 1-1 1-1 2-1 3-2 1-1h1l2-1 2-1 1-1 2-1h2l3-1 3-1h9m-14 14c-2 1-2 4 0 4l1 1 3-1c2-1 2-3 1-4-2-2-4-2-5 0m-30 20l-1 1c0 3 5 4 7 2 2-3-2-6-6-3m-28 19c-3 4 1 7 4 4 2-2 2-2 1-4-2-2-4-2-5 0" fill="#fbfbfb"/><path d="M309 106h-4l-4 1-3 1-2 1-1 1-5 2-1 1h-1l-4 3h-1l-1 1-2 2-1 1-3 2-2 2-3 2-4 3-2 2-1 1h-1l-1 1-1 1-3 2a204 204 0 00-11 9 59 59 0 01-7 6l-3 2a71 71 0 00-7 6 94 94 0 00-7 5l-3 3-3 2c-2 0-1 3 1 6l2 1a5387 5387 0 0012 14l6-3 3-2 1-1a336 336 0 0034-18 97 97 0 0010-5 43 43 0 005-3 136 136 0 0012-7l11-7c6-5 10-10 11-13l1-2v-11l-1-2-1-2v-1l-5-5-2-1-8-1m-4 12c3 3 1 7-3 7l-4-2-1-1c0-1 0-3 2-4 1-2 5-1 6 0m19 13c-1 1-1 0-1-1l1-2v3m-1 2h-1v-1l1 1m-48 4h1c1 0 2 3 1 5-2 4-9 3-9-2 0-3 5-5 7-3m42 2l-1 1v-1h1m-2 2l-1 1v-1l1-1v1m-1 2h-1l-1-1 2 1m-3 1l-1 1v-1h1m-2 2h-1c-1 0-1-1 1-1v1m-2 1l-1 1-1-1h2m-3 2h-1l-1-1h1l1 1m-3 1v1l-1-1h1m-2 2h-1v-1l1 1m-3 1v1l-1-1h1m-2 2l-1 1-1-1h2m-46 2c1 2 1 4-1 6s-6 2-7-1c-2-5 4-8 8-5m43 0h-2l1-1 1 1m-3 1l-1 1v-1h1m-2 2h-2 2m-4 1v1l-2-1h2m-3 1v1l-1-1h1m-3 2l-1 1v-1h1m-2 2l-1 1-1-1h2m-3 1l-1 1-1-1h2m-3 2l-1 1-1-1 1-1 1 1m-3 2h-1v-1l1 1m-3 1l-1 1v-1h1m-2 2h-1c-1 0-2 0-1-1l2 1m-3 1l-1 1c-2 0-2 0-1-1h2m-3 2l-1 1c-2 0-2 0-1-1l1-1 1 1m-3 2h-1c-2 0-2 0-1-1l2 1m-3 1h-1v-1l1 1m-3 2h-1v-1l1 1m-3 1l-1 1v-1h1m-3 2c1 0 1 0 0 0s-2 0-1-1l1 1m-2 1l-1 1c-2 0-2 0-1-1h2m-3 2h-1c-1 0-2 0-1-1l2 1" fill="#a68255"/><path d="M179 7h-5 5l5-1h2-3l-4 1m35-1l5 1 6 1 2-1h-6a16 16 0 00-7-1m-46 2h2-2m61 0h3-5 2m-68 1l-2 1h2l3-1h2-5m74 0l4 1h1l-4-1h-3 2m-81 2l-1 1h1l2-1h3-5m89 0l3 1h1l-5-2c-1 0-1 1 1 1m-93 1h0s-1 0 0 0m99 0l2 1h1l-3-1c-2 0-2 0 0 0m-102 1h1v-1l-1 1m-5 1v1h1l2-1h1-4m113 0l2 1h1l-3-1c-1 0-1 0 0 0m-117 2l-1 1 1-1h2l1-1h-1l-2 1m122 0h1l1 1v-1l-3-1h-1l2 1m-127 2h1l1-1-2 1m131-1l2 1h1c1 0 1 0 0 0l-1-1h-2m-135 2v1l1-1h1v-1l-2 1m140 0h1l-1-1v1m-144 2l-2 1h-1l-2 1-2 1h1l2-1h1l2-1 3-2-2 1m148 0h2c1 0 1 0 0 0h-1l-1-1v1m3 1l6 3v-1h-1l-1-1-2-1h-2m-84 2l-9 1-5 1 6-1h23a171 171 0 002 0l-17-1m91 1h0m-108 1l-4 1h-1l7-1h-2m48 0l7 1h-1l-4-1h-2m-110 1l-2 1-2 1h1l1-1 2-1 1-1h1-1l-1 1m173 0l2 1 1 1h1l-2-1v-1l-3-1 1 1m-120 1h-3l-2 1h3c2-1 5-2 3-2l-1 1m66 0l5 1-1-1h-3-1m-73 1l-1 1 2-1h-1m80 0l2 1v-1h-2m-132 1c-1 1-1 1 0 0h1v-1l-1 1m185 0l2 1 2 1 1 1 3 2 4 2-2-1-2-2-3-2h-2l-1-1-1-1-2-1 1 1m-139 1l-1 1 2-1 2-1h1-1l-3 1m90-1l2 1 2 1-1-1-3-1h-1 1m-139 2h-1 2v-1l-1 1m44 0l-1 1h2l1-1c1 0 1 0 0 0h-2m101 0l2 1h1l-1-1h-3 1m-148 1v1l1-1 1-1-2 1m42 1l-1 1 2-1 1-1-2 1m112 0h1l1 1c1 0 1 0 0 0l-1-1-2-1 1 1M99 35c-1 1-1 1 0 0l1-1-1 1m39 1s-1 0 0 0h2l1-1-3 1m122 0h1c1 0 1 0 0 0h-1M96 36v1l1-1h-1m39 1l-1 1c-1 0-1 0 0 0l2-1v-1l-1 1m128 0h1l2 1h-1l-1-1-1-1v1M94 38l-2 1-2 2h-1 1a54 54 0 015-4l-1 1m37 1h-1v1l2-1v-1l-1 1m137 0l1 1v-1l-1-1h-1l1 1m39 1l3 1 1 1 1 1a128 128 0 00-6-5l1 2m-179 0l-1 1h-1l3-1h-1m143 0l1 1 2 1 2 1v-1h-1l-2-1-1-1h-2 1m-147 2a78 78 0 00-4 2h2l2-1 1-1v-1l-1 1m-36 0l-2 1-1 1h1l2-2m189 1l2 1 1 1 2 1-3-2-1-1h-1m-158 2l-1 1h-1l2-1c0-1 0-1 0 0m-36 1l-3 2-2 2-2 1a174 174 0 007-5m200 1h1l2 1 1 1 4 2 1 1-1-1-2-1-1-1a131 131 0 01-5-2m-173 3h-1l-1 1v0h1l2-1h-1m216 4l3 3-1-1-2-2-3-3 3 3m-221-1l-2 2 2-1 2-1h-2m190 1l2 1-1-1-1-1v1m-195 3a60 60 0 00-9 7l2-2 4-3 1-1h1l2-1 1-2-2 2m198-1l1 1 1 1h1l-3-2-1-1 1 1m4 3l1 1 1 1 1 1v-1l-2-1v-1h-1m29 0l7 7-4-4-1-1v-1h-1l-1-1m-24 4l3 2 3 3c1 1 2 2 1 0l-6-5h-1M87 67a119 119 0 00-14 15 337 337 0 0114-15m253 1l1 1-2-2 1 1m3 4l3 3-4-5 1 2m-26-1l4 5a66 66 0 018 8l2 3 1 2 1 1h1l-1-1-1-1-2-2a198 198 0 00-13-15M52 76l-2 4 2-3c2-2 2-3 0-1m295 0l1 2 3 4 2 2 2 4a47 47 0 003 4v-1l-1-1-1-2-4-5-4-6-1-1c-1 0-1 0 0 0M49 81l-1 1-1 1-2 4 1-2 2-3 1-1m18 7l-3 4-1 2h-1v1l-1 1-1 1 2-2 2-2a113 113 0 003-5m-24 1l-1 2-1 1h-1 1l1-1 3-3v-1l-2 2m291 2l1 1 1 1v1l1 1 1 1v1l3 3c1 0 1 0 0 0l-1-2-2-2v-1l-4-4M39 95l-2 4-1 1 1-2 2-2 1-3-1 2m321 1l1 1h1l-2-2v1M59 99s0 1 0 0h0m303 0l1 1 1 1v0l-1-2-1-1v1m-305 2v1c1 0 2-1 1-2l-1 1m285 0l2 4h1l-3-4m-307 1l-1 1-1 2-1 2 2-2 1-3v-1 1m21 2l-1 1-1 2c-1 0-1 0 0 0l1-2 1-1 1-1-1 1m308-1l1 1 1 1-1-2h-1m-59 2l-3 1-3 1h-2l-2 1h3l1-1 4-1 3-1c3-1 9 0 13 2 2 2 6 6 6 8h1l-3-5h-1v-1h-1c-1-2-3-3-5-3l-2-1h-9m61 0l1 2 1 1-1-2-1-1m-21 1l1 2v1l2 2v-1l-1-1-2-3m-314 2v2l-1 1-1 2c0 1 0 1 0 0l1-2 1-1 1-2h-1m22 1l-1 1 2-2-1 1m239 1l-2 1h-1l-1 1-3 2-2 1-1 1-1 1-1 1h-1l-1 1-1 1-6 4 5-3a153 153 0 0116-11m76 0h1l-1-1v1m-317 1l-1 2 2-2h-1m297 1l1 1 1 1-1-1-1-1m22 1l1 2-1-3v1m-321 2a143 143 0 01-4 10l1-2 1-2v-2l1-1 1-1 1-2v-1l-1 1m-21 0v1l-1 2-1 2v1-1l1-2 1-2 1-1v-1l-1 1m322 0v1l1 1v-1l-1-1c0-1 0-1 0 0m21 0l1 2v1l-1-3m-45 1v1l1 3v2-3l-1-3m-25 1h1-1m-2 2c-2 3 2 7 5 5 2-1 2-2 2-3l-2-3 1 1c1 1 1 3-1 4l-3 1-1-1c-2 0-2-3 0-4v-1l-1 1m52-1l1 1 1 1-1-1-1-1m21 1l1 2h1l-2-2m-19 2v1l1 1 1 4h1l-1-2-1-1v-2l-1-1m-328 1h1v-1l-1 1m350 2v2l1 2 1 2v2l1 2h1l-1-3-1-2-1-2-1-2v-1m-351 0v1l-1 1h1l1-2h-1m246 1l-1 1-3 2-1 1-2 2-2 1-4 4-4 3a73 73 0 00-7 6l-4 3a3727 3727 0 01-30 22l-3 1-6 1-6 1-4 1h-3l-5 1-4 1-3 1h-4l-4 1-4 1-5 1-5 1a233 233 0 00-41 14l-2 1h-2a129 129 0 01-9 4 213 213 0 01-15 9l-4 2-2 2 1 3 1 1a124 124 0 0010 16 190 190 0 018 13l9 13a575 575 0 0030 38 18 18 0 004-3l1-1 2-1 1-1 1-1h1l4-3 2-2 2-2-1 1-1 1-1 1-5 3-1 1-4 2-1 1-6 3v-1l1-1 1-1h2l1-1 1-1v-1h1l2-2h1v-1l2-1 3-2 1-1 1-1h1l1-1 1-1v-1l5-4 1-1h1l1-1 1-1 1-1 1-1 2-2 1-1a245 245 0 0051-68l1-2 1-2v-2l1-7-2-1-3-5-1-1-1-1-1-1v-1l-1-1-1-1-1-1-1-1c-1-1 0-2 5-6a111 111 0 006-4l4-4 4-3 3-2 3-2 6-5 2-2 3-2 4-4a98 98 0 019-6l3-3 5-4h-1m-226 1l-1 1v1l1-2c0-1 0-1 0 0m283 2l-1 2v2l1-4v-1 1m29 0l1 2v1c0 1 0 1 0 0v-2l-1-1m-314 2v1 1l1-3-1 1m-20 0c-1 1 0 1 0 0v-1 1m-1 2v2l-1 2 1-1v-3m304 1v2l1-3-1 1m33-1v0m-318 3v1l1-2-1 1m319 0l1 3v-1l-1-2s0-1 0 0m-37 2l-1 1 3-3-2 2m57-1l1 1-1-1m-340 2v2l-1 1c1 0 2-2 1-3 0-1 0-1 0 0m233-1l-3 2h1c4-3 8 0 6 3-2 2-6 1-7-1 0-1 0-1 0 0 0 3 6 4 7 1 2-3-1-6-4-5m-253 1l-1 3 1-1v-2m341 1c0 2 1 3 2 3l-1-2c0-2-1-2-1-1m20 0l1 2v2h1l-1-2-1-2c0-1 0-1 0 0m-61 1a51 51 0 01-7 6 59 59 0 00-5 3l-1 1h1v-1l5-3 2-1 2-2 5-4-2 1m-281 3l-1 1v1l1-3v1m-20 0l-1 1v3l1-3v-2 1m344 1c0 2 1 5 2 4l-1-1-1-3c0-1 0-1 0 0m20 3l1 1v-1h-1m-346 1l-1 2v1h1v-4 1m-20 2l-1 3c0 2 0 2 1 0v-3c1-1 1-1 0 0m348 0l1 4v-1l-1-3c0-1 0-1 0 0m-60 1l-1 1 2-1h-1m79 1l1 2v2l1 1v-1l-1-3-1-1c0-1 0-1 0 0m-349 2v2l-1 2h1l1-5-1 1m265 0l-2 1-1 1-1 1-3 1h2l2-1 1-1 3-2h-1m66 3l1 3 1 1-1-2v-2l-1-2v2m-351 0v6-2l1-3c0-2 0-2-1-1m230 0l4 3c0 1 0 1 0 0 0-2-2-4-4-4l-1 1h1m-3 1v3l2 2-1-1v-4c1-1 0-2-1 0m49 1l-1 1c-1 0-1 0 0 0l2-1h-1m95 0v2l1 3c0 2 0 2 0 0v-3l-1-2m-97 1l-1 1-1 1 2-2m-42 2l-2 2 4-3-2 1m-214 2v6-2l1-3v-3l-1 2m253-2l-1 1h-1l2-1s1 0 0 0m-3 2h-1l-2 1-1 1h-1 1l2-1 2-1v-1 1m85 1v4l1 2c0 1 0 1 0 0v-3l-1-3c0-1 0-1 0 0m-354 0l-1 3c0 1 1 1 1-1v-2m262 2l-2 2h1l1-1 2-1h-2m111 2l1 3 1 6v4-4l-1-8c0-2-1-2-1-1m-374 4v-2 2m258-3v1l1-1 1-1-2 1m-239 2l-1 4v10-5l1-6 1-3-1-2v2m236 0h0m-2 1l-1 1c-1 0-1 0 0 0l1-1v-1 1m-4 2v1l1-1 1-1-2 1m108 4v6a109 109 0 010 25v2l1-6a160 160 0 00-1-27m-110-3l-1 1-2 1h-1l-2 1-1 1-2 1v1l1-1 1-1h1l2-1 1-1 2-1 2-1h-1m-12 6v1h1l1-1h-2m-3 2v1l1-1h-1m-3 2h0m-2 1l-1 1c-1 0-1 0 0 0l1-1 1-1-1 1m-209 7v4a125 125 0 000-4m206-6l-1 1v1l1-1v-1m152 12v11l1-12-1-10v11m-156-9l-1 3 1-1v-2l1-1-1 1m-2 5l-1 2v1l1-4v1m-2 5v2 1l1-3h-1m-198 6l1 10 1 2v-2l-1-3-1-6v-5 4m197-2l-1 1v1l1-2v-1 1m-2 4v1l-1 1 1-2c0-1 0-1 0 0m-1 3l-1 1v1l1-2m-3 4v1l1-2-1 1m147 3a25 25 0 00-1 5l1-3v-3 1m-148 0c-1 1-1 1 0 0l1-1-1 1m-188 2v4l1 2c0 1 0 1 0 0v-3l-1-3v-2 2m186 0v1l1-1h-1m170 3l-1 4v1l1-5c0-2 0-2 0 0m-171 0l-1 1-1 2a99 99 0 00-6 7l-1 1h1l1-1v-1l2-2 4-4v-2l1-1 1-1-1 1m-205 5v-2 2m354 0l-1 3v1l1-3v-1m-333 2l1 2v2l1 1v-1l-1-3-1-2v1m-21 2l1 1v-1h-1m352 3v4-1l1-3v-1l-1 1m-156 0a83 83 0 00-6 7l5-6 1-1m178 0l-1 2v4-1l1-2v-2-1m-351 1v2l1 2c0 1 0 1 0 0v-3l-1-1m-21 3v3l1 1v-2l-1-2v-1 1m349 1v1l1-1h-1m-327 2l1 1 1 2v1l-1-3-1-1m326 1v0c0-1 0 0 0 0m22 1l-1 3c0 1 0 1 0 0l1-2 1-1h-1m-369 2l1 3h1l-1-1v-2l-1-1v1m346 0v2l-1 2 1-2 1-2v-1l-1 1m-323 1l1 1v1l-1-2m321 4v1l1-1v-1l-1 1m24 0v0c0-1 0-1 0 0m-343 2l1 1c0 1 0 1 0 0v-2c-1 0-2 0-1 1m-23 0v2l1 1c0 1 0 1 0 0v-2l-1-1m365 1l-1 3v1l1-5v1m-24 0l-1 2v2l-1 1h1l1-2v-2-1m-317 2l1 1v2h1l-1-3h-1m-23 2l1 2 1 2-1-3-1-1m362 2l-1 2v1l1-4v1m-337 1a51 51 0 014 7v-1l-1-2-1-1-1-3-1-1v1m313 0l-1 1-1 1 1-1 1-1c0-1 0-1 0 0m-176 3l-2 3 6-6-4 3m-160-1l1 2v2l1 2 1 2v1-1l-1-2v-2l-2-4m334 1l-1 1v2l1-1v-2m24 1v2 1l1-3h-1m-201 2l-6 4-1 1v1l1-1 2-1 4-4m175 1v1l1-1h-1m-305 1l1 1 1 1-1-1-1-1m330 0l-1 2v1l1-3m-27 3l-3 5-1 2 2-3 1-1 1-1 1-2v-1l-1 1m-301 0l1 2s0 1 0 0v-1l-1-1m-26 1h1c0 1 0 1 0 0h-1m352 1v1l-1 1 1-2c0-1 0-1 0 0m-208 1l-3 3-5 4 2-1 3-3 3-2 1-1 1-1-2 1m-143 0l2 2-1-2h-1m26 0l1 1 1 1c0 1 0 1 0 0l-1-1-1-1m324 2l-1 2c-1 0-1 0 0 0l1-2m-348 2l1 1c0 1 1 1 0 0l-1-1c0-1 0-1 0 0m27 0v1h1l-1-1-1-1 1 1m292 2v1l1-1v-1l-1 1m-291 0l1 2 1 2 1 2h1v-1l-1-1-1-2-2-2m318 0l-1 1v1l1-1v-1m-344 1l1 2-1-1v-1m316 1l-1 1-1 1v1c0 1 0 1 0 0l1-1 1-1v-1h1-1m26 2v1l1-1h-1m-341 1l1 2h1l-1-1-1-1m339 3v1l1-2-1 1m-310-1l1 1 1 2 4 5-1-2-2-3-1-2-2-1m-27 1l1 2v-1l-1-1m308 1l-1 1v1l-1 1 2-2 1-2-1 1m28 2l-1 2v-1l1-1 1-1-1 1m-335 0l1 1 1 2 1 2v-1l-1-2-1-1-1-1m305 2l-3 4c0 1 0 1 0 0l2-2 1-2m-270 6l4 4-1-1-1-1-1-2-2-2-1-1 2 3m-31-2l1 1v1-1l-1-1m326 2v1-1l1-1-1 1m-30 0c-1 1-2 2 0 1l1-2-1 1m-295 1l1 1 1 1-2-2m292 2l-2 3-2 2-1 1-1 1-2 3-3 3a101 101 0 0011-13m-290 1l1 2 1 1-2-3c0-1 0-1 0 0m320 1v1l1-2-1 1m-286 2l9 9-3-3a880 880 0 01-6-6m284 0v1h1c1-1 0-2-1-1m-315 1l1 1-1-1m1 2l1 1 1 2h1l-1-1-2-2c0-1 0-1 0 0m311 2v1l1-1h-1m-1 3c-1 1-1 1 0 0l1-1-1 1m-307 0l1 1 1 1 1 1c1 0 1 0 0 0l-1-2-2-1m38 3l3 2-5-4 2 2m231 0l-3 3-3 2 4-2 3-4-1 1m34 1l-2 3-1 1 4-4v-1l-1 1m-298 2h1l1 2 1 2a60 60 0 006 5l-7-7-2-2m39 3l1 1a141 141 0 00-1-1m218 1l-3 2-1 1 4-4v1m-6 4l-2 1v1l2-2 1-1-1 1m-204 1l2 2 3 1-2-2-3-1m199 2l-2 2h1l1-1 1-1h-1m-235 1l5 5-1-1-2-2-2-2m41 0l4 3-2-1-1-1-1-1m190 2l-2 1-1 1v1l1-1 1-1 2-1h-1m-185 1l1 1a68 68 0 0011 6l-2-1-3-1-2-2-2-1-2-1-1-1c-1 0-1 0 0 0m180 3h-2l-1 1 4-2-1 1m-220 1l3 2-2-2-2-2 1 2m215 1l-1 1-2 1-2 1-2 1h-1l-1 1v1l3-2 4-2h1l1-1 1-1c1 0 1 0 0 0h-1m-212 1l1 1v-1h-1m2 2l1 1c1 0 1 0 0 0l-1-1c0-1 0-1 0 0m51 2l1 1h1l-1-1-1-1v1m-48 1a57 57 0 007 5l-3-2-3-3-2-1 1 1m51 0l1 1 1 1v-1l-2-1c-1 0-1 0 0 0m144 1c-1 0-1 1 0 0l1-1c1 0 1 0 0 0l-1 1m-140 1l1 1h1l-1-1h-2 1m136 0l-1 1h1l2-1c1 0 1 0 0 0h-2m-132 2l2 1v-1h-1l-1-1v1m128 0l-1 1 1-1h2v-1l-2 1m54 1l-2 1-3 3 1-1 3-2 2-1h-1m-178 0l1 1c1-1 0-1-1-1s-1 0 0 0m120 0l-1 1c-1 0-1 0 0 0h2l1-1h-2m-115 2l2 1h1-1l-1-1-2-1 1 1m111 0l-2 1c-1 0-1 0 0 0l2-1c2 0 2-1 1-1l-1 1m-169 0l1 2-1-1v-1m63 2l2 1 1-1h-1-2l-1-1 1 1m101 0h-2c-1 0-1 0 0 0h3v-1l-1 1m-162 1h1l-1-1v1m223 0h-1l2-1-1 1m-157 0h1-1m91 0h1c1 0 1 0 0 0h-1m-155 1l1 1v-1l-1-1v1m218 0v1l1-1h-1m-151 0l3 1h1l-4-1c-2 0-2 0 0 0m83 0l-2 1h2l2-1h2-2-2m-147 2l1 1-1-1-1-1 1 1m71 0l3 1c1 0 2 0 1-1l-5-1c-1 0-1 1 1 1m69 0l-2 1h2l3-1h2-5m72 1l-2 1-1 1-1 1 1-1 1-1 4-2-2 1m-135 0h2-2m56 0h2-2m-50 1h2l-2-1h-1l1 1m45 0h2l2-1h-1l-3 1m-124 1l1 1 2 1h1c1 0 0 0 0 0l-1-1-1-1h-2c-1-1-1-1 0 0m8 4l1 1-1-1-1-1 1 1m189 0v1l1-1c1 0 1 0 0 0h-1m-187 2l2 1-1-1-1-1v1m184 0v1l1-1 1-1-2 1m-181 1c0 1 1 2 2 1l-1-1h-1m178 1s-1 0 0 0h1v-1l-1 1m-175 1l2 1-1-1-1-1v1m173 0l-1 1h-1l2-1c0-1 0 0 0 0m-4 2h-1v1c1 0 3-1 2-2l-1 1m-165 0l1 1v-1h-1m162 1l-1 1c-1 0-1 0 0 0h1l1-1h-1m-159 0l2 1-2-1m3 2l3 1-1-1h-2m152 0l-1 1c-1 0-1 0 0 0l2-1v-1l-1 1m-148 1l2 1h1-1l-2-1c-1 0-1 0 0 0m4 2l2 1h1-1l-2-1v0m137 0v1l1-1h-1m-4 1l-1 1h1l2-1c1 0 1 0 0 0h-2m-129 1h1-1m3 0l2 1 1 1-1-1-2-1m122 1h-1l-1 1h1l1-1 1-1c1 0 1 0 0 0l-1 1m-117 1l1 1h1l-2-1c-1 0-1 0 0 0m111 1h-1 2l1-1c1 0 1 0 0 0l-2 1m-106 1h2l2 1c1 0 1 0 0 0l-2-1-2-1-1 1h1m102 0h-2v1l1-1h2v-1l-1 1m-94 2l2 1h1l-1-1-2-1h-1l1 1m87-1l-1 1-2 1h1l3-1v-1h-1m-81 2l3 1h1l-3-1h-1m74 0l-2 1h-2 2l4-1h-2m-65 2l6 1h4l-3-1h-7m56 0h-5l-4 1h4l6-1h-1m-42 1c5 2 27 2 30 0l-8 1h-15l-7-1" fill="#d3d4d3"/><path d="M183 7a218 218 0 01-17 2l-5 1-3 1-4 1a146 146 0 01-13 4l-7 2-2 1-2 1h-2l-2 1a89 89 0 01-7 3l-3 2a127 127 0 00-14 8 58 58 0 01-5 3h-1l-4 3-2 1-2 2a369 369 0 01-13 11 243 243 0 00-37 45l-1 1a106 106 0 00-10 19l-1 2v1l-1 1v1l1-1v-1l1-1 1-2v-1l1-2a138 138 0 006-11l1-2v-1l3-4a67 67 0 003-5l1-1a135 135 0 0116-22 217 217 0 0152-41 190 190 0 0175-22 221 221 0 0169 8l3 1a44 44 0 019 3l2 1 2 1h2l2 1 1 1 1 1h2l2 1 2 1 2 1h1l3 2a57 57 0 017 4 54 54 0 017 5 119 119 0 0119 14 192 192 0 0165 131v7l1-6-1-9a95 95 0 01-2-13v-3l-1-4-1-4-1-3-1-3a72 72 0 00-3-11l-2-6-1-2-1-2v-2l-1-2-1-2-1-1v-2l-1-2-1-1-1-1-2-5a107 107 0 00-11-18 94 94 0 00-11-15 223 223 0 00-62-48l-2-1-2-1h-1l-6-3h-2l-2-1-2-1-2-1-2-1h-2l-3-1-2-1-3-1-3-1h-2l-4-1-4-1-3-1h-5l-6-1-7-1h-34m8 17h13l9 1h4l-3-1h-23m-18 1l-4 1-5 1-3 1-3 1h-3l-3 1-2 1-3 1-3 1-2 1h-2l-2 1-1 1-4 2 2-1 1-1 3-1 6-2a209 209 0 0015-4 86 86 0 0114-3l5-1h3-9m48 0l4 1 4 1h4l4 1a65 65 0 0112 3l3 1 2 1 3 1h1l6 3 2 1h2a48 48 0 004 2 51 51 0 006 3 54 54 0 004 2l3 2 2 1 3 2 6 4 4 3 2 1v1l6 4a181 181 0 0154 79 269 269 0 018 39 200 200 0 01-7 61l-1 3-2 7a72 72 0 00-3 9 1100 1100 0 00-15 27 49 49 0 01-4 6 140 140 0 01-10 12 139 139 0 01-33 29 94 94 0 01-13 9l-3 1-3 2-2 1h-1l-2 1-1 1-3 1-7 3-4 1-3 1-2 1-3 1-2 1h-3l-2 1-5 1-3 1-5 1h-4l-7 1-10 1h-17a355 355 0 00-19-3l-6-1h-3l-2-1-4-1-3-1a207 207 0 00-16-5l-3-1a284 284 0 00-13-6 158 158 0 01-31-21 192 192 0 01-37-45 168 168 0 0154-228l1-1 1-1 3-1 4-3 2-1 2-1 2-1 2-1 1-1a101 101 0 017-3 92 92 0 00-17 8l-3 2-3 2-3 1-2 2-2 1-2 1a5801 5801 0 00-29 28 142 142 0 00-22 31l-1 1-1 2a275 275 0 00-12 33l-2 8-1 4-1 5-1 5a233 233 0 004 66l1 3 1 2 1 3v2l1 3 1 2 1 2v1l1 3 1 2 1 1 1 2v2l1 1a32 32 0 003 7l1 1 1 2 1 2a32 32 0 013 4l2 4 1 1 1 1 2 4 1 1 1 1 1 2a184 184 0 0062 51 99 99 0 0016 7l2 1 2 1h3l2 1 3 1 3 1 3 1h3l3 1 5 1 4 1h7l8 1a161 161 0 0078-13l1-1 2-1 2-1h1l2-1 2-1 1-1 3-1a84 84 0 007-4 111 111 0 0017-12l1-1h1l2-2a189 189 0 0048-65l1-3 1-2 1-1v-2l1-2 1-3 1-2 1-3a101 101 0 004-20l1-5 1-6a204 204 0 00-6-64l-1-3v-2l-1-2-1-3-1-2v-2l-1-1-1-2-1-2-1-3v-1l-1-1-1-3a284 284 0 01-7-13l-1-3-1-1-1-1a80 80 0 00-9-13 116 116 0 01-8-10l-2-1a199 199 0 00-44-35l-1-1h-2l-1-1-2-1-1-1h-2l-2-1-1-1-2-1h-2l-2-1-2-1-6-2-3-1-2-1-3-1-3-1h-3l-3-1-3-1-4-1h-4l-5-1h-5 4M24 126l-1 3v1l-2 5-2 5v2l-1 3-1 3-1 3a55 55 0 00-2 10 198 198 0 0010-35m364 80v3a74 74 0 000-3m-1 21v-2 2m-1 4v-1 1m-373 0v2h1l-1-2m373 5l-1 2v-1l1-2v1m-1 5s0 1 0 0v-1 1m-2 8v-1 1m-366 4l1 2-1-2m2 6v0s0-1 0 0m1 5l1 1 1 1-1-2h-1m358 3c-1 1-1 1 0 0v-2 2m-16 33v1l1-2-1 1M48 317l2 2-3-4 1 2m301 2l-2 3v1l2-4m-293 8l1 1-1-2-1-1 1 2m285 3l-2 1 2-1 1-2-1 2m-15 15l-1 1 4-4-3 3m-255-2l3 2-2-2h-1m246 9l-2 2 3-2 2-2-3 2m-233 2l2 1-1-1h-1m2 1l2 2 2 1-2-2-2-1m224 2l-1 1 2-1h-1m-10 7c-2 1-2 2 0 1l2-2-2 1m-196 3l1 1 2 1-1-1-2-1m189 1l-1 1 2-1h-1m-172 8l1 1v-1h-1l-1-1 1 1m3 2h2l-2-1v1m4 1l2 1-2-1c-1 0-1 0 0 0m125 6v1l1-1h-1m-5 2l-1 1 2-1h-1m-91 2h1-1m8 1l2 1-1-1h-1m68 0v1l2-1h-2m-5 1h0s-1 0 0 0m-54 1h1c1 0 1 0 0 0h-1m4 0h1-1m42 0h1-1m-35 1h1-1m27 0h1-1m-20 0" fill="#a7cb9b"/><path d="M186 7l-2 1h-2 2l4-1h2-4m24 0h1-1m4 1h4l-3-1c-2 0-2 0-1 1m-37 0h1c1 0 0 0 0 0h-1m44 0h1c1 0 0 0 0 0h-1m-50 1h-1v1l2-1V8l-1 1m57 0l2 1-1-1h-1m5 1h1c1 0 0 0 0 0h-1m4 1h1c1 0 0 0 0 0h-1m-47 12h2-2m16 0h1-1m-22 1h-1 4-1-2m28 0h0m-40 1h0m-8 2s0 1 0 0h2v-1l-2 1m70 0h2l-3-1 1 1m6 1l2 1c1 0 1 0 0 0l-2-1M83 48c-1 0-1 0 0 0l1-2-1 2M67 62l-5 5 5-5 5-6-5 6m261-4l2 1c0 1 0 1 0 0l-1-1h-1M78 74l-1 1 2-1 1-2-2 2m268 3l1 2-1-3v1M20 141c-1 1-1 1 0 0v-1 1m360 1v2h1l-1-1v-1m-362 4v1l1-2-1 1m366 15v0c0-1 0-1 0 0m-352 0l-1 2 1-1v-1m337 8v-1 1m-339 2v0l1-1-1 1m356 1v-1 1m0 3v2l1 1v-1l-1-2v-1 1m-357 2c0 1 0 1 0 0v-2 2m341-1v3-1-3 1m-357 6v-1 1m358 1v-1 1m-359 7a301 301 0 006 64l1 3v2l1 3 3 7 1 3v1l1 1v1-1-1l-1-2-1-2-1-3-1-2v-3l-1-2-1-2v-3l-1-4-1-3-1-4-1-3-1-5-1-6-1-30v-9m375 15a224 224 0 01-4 42l-1 3-1 3-1 3-1 3v3l-1 2-1 2-1 2v3l-1 2-1 2-1 1-1 3v1l-2 5-1 1-1 3-1 2-1 1-1 1-1 2-2 4v1l-1 1-1 2-1 1-3 5-2 3-2 3-2 2 3-3 2-2 1-3 1-1 2-2a173 173 0 018-15l1-2 1-1 1-2v-2l1-1 1-2 1-2 1-2v-2l1-2 1-2 1-2v-2l1-2 1-3a69 69 0 003-11l1-3 1-4v-3l1-4 1-6 1-5a408 408 0 000-21m-158-13v1h1c0-2 0-2-1-1m-5 10l-1 2v1l1-3m147 3v-1 1m-149 1l-1 1v1l1-2m-2 5l-1 1 1-1 1-1-1 1m150-1v3-1-3 1m-341 2v-1 1m188 4v1l1-2-1 1m-187 1l1 3-1-2v-1m184 8v1l1-1h-1m-3 1v0c1-1 0-1 0 0m-180 0l1 3v-2l-1-1m177 4l-2 2v1l1-1 1-2m157 7v1l1-2-1 1m-164 2l-2 3 2-2v-1m163 4c-1 1-1 1 0 0v-1 1m-166 0l-1 2v-1l1-1c1-1 1-1 0 0m-7 7l-1 1 2-1c1-2 1-2-1 0m-2 3l-1 1 2-2-1 1m-13 13c-1 0-1 0 0 0h1v1c1-1 0-2-1-1m-1 1v1c-1 1 0 1 0 0l1-1h-1m-2 1v1h1v-1h-1m-2 2h1c1 0 1 0 0 0h-1m-3 3l-2 2 2-1 1-1c1 0 1 0 0 0l1-1v-1l-2 2m-143 3l2 4 1 2a70 70 0 004 9l1 2 2 2a66 66 0 013 6l1 2 2 2-2-2a32 32 0 01-3-6 147 147 0 01-10-20l-1-1m140-1v1h1l-1-1M41 306v1l1 1a102 102 0 0012 16 206 206 0 0042 38l7 4a1417 1417 0 01-18-12 26 26 0 01-4-4 177 177 0 01-40-44m33 5l2 2-1-2-2-2 1 2m8 8l2 2-1-2-2-2 1 2m265 2l-2 3 2-2a96 96 0 010-1m-4 5l-3 4a208 208 0 01-54 42h1a60 60 0 016-3 151 151 0 018-6l4-2 3-2 1-1a160 160 0 0034-32m-185 35h1c1 0 0 0 0 0l-1-1v1m15 3h1c1 0 1 0 0 0l-1-1v1m9 1h1l-1-1v1m4 0h3-4 1m25 0h-2l2 1 2-1h1-1-2m-91 10l2 1a473 473 0 0121 8l3 1 2 1 3 1 3 1h2l-2-1-2-1h-3l-2-1-3-1h-2l-3-1-6-3-3-1h-2l-1-1-2-1-2-1h-2l-1-1c-1 0-1 0 0 0m158 0l-1 1-2 1-2 1-2 1h-2l-2 1-2 1-3 1-6 2-3 1-2 1h-3l-3 1-2 1h2l3-1 3-1 2-1 3-1 7-2 3-1h1l2-1 3-1 2-1 1-1h1l3-1 1-1h-2m-121 13l5 1 3 1 5 1 5 1a233 233 0 0063-3l5-1h-2l-4 1h-3l-6 1-5 1a278 278 0 01-66-3" fill="#64a48c"/><path d="M181 7h0m35 0h2l-2-1v1m-38 0h1-1m-5 1h1-1m52 0h1-1m-64 2h1l1-1-2 1m-13 3c-1 1-1 1 0 0h2v-1l-2 1m51 11h0c-1 0-1 0 0 0m-10 0c-1 1 0 1 3 1l4-1h-7m15 0a34 34 0 006 0h-6m-21 1h1-1m32 0h1-1m9 1h2-2m-117 4l-1 1 2-1h-1m46 1h-1 2v-1l-1 1m-5 1l-1 1 1-1h0m103 0h1-2 1m-149 1l-1 1 1-1 1-1-1 1m-3 2h1l1-1-2 1m178 8l1 1h1l-1-1-1-1v1m4 2l1 1-1-1-1-1 1 1m36 2l1 1 2 1-2-1-1-1m-205 1h1l1-1-2 1m181 5l3 1 1 1-1-1-3-2v1M66 62l-4 3 4-3 4-4-4 4m238-1l2 1c1 0 1 0 0 0l-2-1m4 2l1 1-1-1c-1-1-1-1 0 0M81 72l-3 4 3-4 4-3-4 3m-24-1l-1 2 1-2 2-1-2 1m289 5l1 1-1-1-1-2 1 2M76 77l-2 3 2-2c1-2 2-2 0-1m-4 5l-2 2 2-2 2-1-2 1m-6 7l-1 1 1-1c2-2 2-2 0 0m-23 0v1l1-2-1 1m291 1l1 1c0 1 0 0 0 0l-1-1m26 5v1l1 1-1-1v-1m-18 6l1 2h1l-1-1-1-1m-36 4l-3 1-4 1-1 1a70 70 0 00-16 8 360 360 0 00-37 30l-6 5-3 2-3 2-4 3-4 4h-1l-1 1-4 3-4 4h1l3-3a7120 7120 0 0075-57l8-3a25 25 0 0115 0l2 1 1 1h1l-2-1-2-1c-3-2-9-3-11-2m-252 1v1l1-2-1 1m-22 2v1l1-2-1 1m268 9c-2 1-3 4-2 5 2 3 5 4 7 2 4-4-1-9-5-7m5 2c2 2 1 3-1 5-3 2-7-1-5-5 1-2 4-2 6 0m69 3v0m-350 4l-1 2 1-1v-1m352 3h1l-1-1v1m-334 2c-1 1-1 1 0 0v-2 2m336 1v0c-1-1-1-1 0 0m-357 2l-1 2 1-1v-1m338 2l1 1c1 2 1 1 0 0l-1-1m-88 1c-2 1-3 2-3 4 0 3 8 4 9 1v-3c-1-3-4-3-6-2m4 1c2 0 2 2 1 4-1 3-8 2-7-2 1-3 3-4 6-2m86 2v1h1l-1-1c0-1 0-1 0 0m-47 3c-2 2-2 3 0 1l2-1h-2m48 2l1 2c1 0 1 0 0 0v-2h-1m-327 4v1l1-2-1 1m-19 2v0m348 0l1 2v-1l-1-1m19 2l1 2v1l-1-3m-349 2v-1 1m208 2c-3 2-3 4 0 6 2 3 7 0 7-3s-5-5-7-3m5 1c2 2 1 5-2 6-2 0-5-3-5-4 1-4 4-5 7-2m119-1v0m-352 1v2l1-1v-2l-1 1m370 0l1 1v-1h-1m-351 2v-1 1m352 2l1 2-1-2c0-1 0-1 0 0m-18 1v-1 1m-335 0v0m-18 1v-1 1m353 2l1 2v-1l-1-1m-354 1v-1 1m373 1v-1 1m-355 1v-1 1m338 4v-1 1m-338 0v-2 2m356 2v-1 1m-375 3s0 1 0 0v-1 1m357 1l1 5-1-5v-3 3m-339 4v-2 2m-19-1v6l1-3c0-3 0-5-1-3m377 9v5a213 213 0 000-5m-18 3v4a98 98 0 000-4m-359 5v5a263 263 0 000-5m19 6v-2 2m340 1c-1 6-1 7-1 3l1-4v1m-340 7v0c0-1 0-1 0 0m339 3v-1 1m-339-1l1 2v-2h-1m1 5v-1 1m337 1l-1 2 1-1v-2 1m-1 5v0c0-1 0 0 0 0m-334 6l1 2s0 1 0 0l-1-2m331 5v1l1-1c0-1 0-2-1 0m-329 1v2h1l-1-1v-1m328 4l-1 2 1-1v-1m-327 2l1 1 1 1-1-2h-1m325 4v0c1-1 1-2 0 0m-322 4l1 2v-1l-1-1m318 8l-1 2 1-1v-1m-315 0l1 2 1 1-1-2-1-1m313 4l-1 1 1-1 1-1-1 1m-307 8l1 1-1-1-1-1 1 1m14 24l3 2-1-1c-2-3-3-4-2-1m6 6l2 3-1-2-3-3 2 2m261 3l-1 2 1-1v-1m-256 4l2 1-1-1-2-2 1 2m6 5l2 3-2-3-3-2 3 2m4 5l3 2-2-2-2-2 1 2m227 5l-1 1 3-2-2 1m-217 3l1 1-2-2 1 1m209 3l-1 1 1-1 2-1-2 1m-201 3l1 1 2 1-2-1-1-1m170 16l-1 1 2-2-1 1m-16 6v1l1-1h-1m-101 4h0c-1-1-2-1 0 0m86 1h1l1-1-2 1m-17 3l-1 1 2-1h-1m-44 1h1-1m40 0h0s-1 0 0 0m-33 0h1-1m24 0h2-2m-17 1h7-7" fill="#c7d0a8"/><path d="M327 124v-1 1m-14 20l-2 2-2 1 4-3m-7 5c-2 1-1 1 0 0l1-1-1 1m-4 2l-2 2 3-2h-1m-7 4l-1 1 2-1 1-1-2 1m-3 2h1v-1l-1 1m-14 8h1l1-1-2 1m-3 1v1l1-1h-1m-60 4l1 3 2 2a2420 2420 0 008 11v7l-1 3-1 3-1 2-1 2a94 94 0 00-2 6 93 93 0 01-8 13l-3 5-3 3a296 296 0 01-39 46l4-3a277 277 0 0049-55 165 165 0 0011-26l1-2-1 1c-1 1-2 2-2 5v1l-1 3-1 2-1 2-1 2v1l-1 2-1 2v1l-2 3-2 3-1 1v1l-1 2-1 1-2 4-1 1-4 5-1 1v1l-1 1-1 1h-1l-1 2-3 4a398 398 0 01-29 26 362 362 0 0031-32l5-8 1-1 4-5 1-2 2-3 1-3 4-7v-1l1-2 1-1 1-2 1-2v-3l1-2 1-2v-2l1-2-5-9a5387 5387 0 01-8-10m49 3c-2 1-1 1 0 0l1-1-1 1m-8 4l-1 1 1-1 1-1-1 1m-90 99h-1s-1 0 0 0h1m-2 1l-1 1 1-1m-2 2h-1l1-1v1m-15 11h0m-3 2h1v-1l-1 1" fill="#949494"/><path d="M327 126s0 1 0 0v-1 1m-113 45v1l1 1 1 1 1 1 1 1v1l1 1 1 1 1 1 3 5 2 1-1 7v2l-1 2-1 2-1 2-1 2v2l-1 2-1 2-1 1v1l-1 2 4-7a66 66 0 012-5l1-2 1-3 1-3v-2l1-2-5-8a156 156 0 01-8-10m17 21l-1 2s0 1 0 0a89 89 0 011-2m-2 5v2l1-3-1 1m-1 5v0c0-1 0 0 0 0m-2 3v1l-1 2 1-2 1-1h-1m-2 5v1c0 1 0 1 0 0l1-1v-1l-1 1m-213 3v-2 2m212-1l-2 4 1-1 1-2 1-1h-1m165 5v3a53 53 0 000-3m-172-2l-1 1-1 1v2l-1 1-1 1-1 1-1 2v1l-3 4-1 1-1 1-1 1-2 3-1 1-1 1v1l-1 1a354 354 0 01-43 43h-1l-1 1-1 1-3 2-2 1v1h-1l-2 2h-1v1l-1 1-1 1h-2l-1 1-1 1v1l6-3 1-1 4-2 1-1 5-3 1-1 1-1c1-1 1-1 0 0h-1l-1 1-3 3-4 2h-2l1-1 2-2 2-1 5-4a28 28 0 014-3l3-3 2-1 1-2 5-4a302 302 0 0045-54c1-1 1-1 0 0m-205 3l1 2v-1c-1-3-1-3-1-1m209 0l-1 2-3 4 3-4 1-2 1-1-1 1m-208 6v-1 1m203 2l-1 1 1-1 1-1-1 1m172-1v3-1-2m-375 6l1 3v-2l-1-1m198 1v1l2-2-2 1m176 2v0c0-1 0 0 0 0m-180 4l-4 4 3-2 2-3 2-3-3 4m-192-1v-1 1m0 3l1 3v-2l-1-1m370 5v0c0-1 0 0 0 0m-368 3v1c1 1 1 1 0 0v-1c0-1 0-1 0 0m367 3v-1 1m-3 7v1h1c0-2 0-2-1-1m-210 16l-1 1 1-1c1-1 1-1 0 0m-3 2l-3 2-1 1 4-3c1-1 0-1 0 0m-7 5l-2 2 2-1c1-1 2-1 0-1m-14 10l-2 1v-1h2m-2 2h-2 2m184 50l-1 1 2-1 1-2-2 2m-83 45h1c1 0 0 0 0 0h-1m-89 1h1l-1-1v1m83 0h0c-1 0-1 0 0 0m-75 1l1 1-1-1c-1-1-2-1 0 0m71 0l-1 1 2-1h-1m-67 1h1-1m62 0h1-1m-58 1h2l-2-1v1m10 1h1-1m34 0h1-1m-27 0h5-5m19 0h-2 2m-11 1" fill="#c2c4c6"/></g></svg>