<?xml version="1.0" encoding="UTF-8"?>
<svg width="100%" height="100%" viewBox="0 0 600 595" version="1.1" xmlns="http://www.w3.org/2000/svg" xmlns:xlink="http://www.w3.org/1999/xlink">
    <!-- Generator: sketchtool 61 (101010) - https://sketch.com -->
    <title>Victory</title>
    <desc>Created with sketchtool.</desc>
    <g id="Finals" stroke="none" stroke-width="1" fill="none" fill-rule="evenodd">
        <g id="The-Good-Badges-for-OSS-usage" transform="translate(-298.000000, -333.000000)">
            <g id="Victory" transform="translate(298.000000, 323.000000)">
                <path d="M342.276968,19.4007702 L538.247998,106.565184 C575.801346,123.268242 600,160.515702 600,201.616141 L600,413.57732 C600,454.677759 575.801346,491.925219 538.247998,508.628277 L342.276968,595.79269 C315.36338,607.763373 284.63662,607.763373 257.723032,595.79269 L61.7520017,508.628277 C24.1986538,491.925219 2.32856136e-14,454.677759 0,413.57732 L0,201.616141 C2.33883573e-14,160.515702 24.1986538,123.268242 61.7520017,106.565184 L257.723032,19.4007702 C284.63662,7.43008735 315.36338,7.43008735 342.276968,19.4007702 Z" id="Polygon-Copy-4" fill="#202020"></path>
                <path d="M332.268654,53.3025417 C311.655676,44.165094 288.140981,44.165094 267.528004,53.3025417 L76.380235,138.035705 C51.5383581,149.047766 35.5217047,173.667505 35.5217047,200.840733 L35.5217047,414.543463 C35.5217047,441.716691 51.5383581,466.336431 76.380235,477.348491 L267.528004,562.081654 C288.140981,571.219102 311.655676,571.219102 332.268654,562.081654 L523.416422,477.348491 C548.258299,466.336431 564.274953,441.716691 564.274953,414.543463 L564.274953,200.840733 C564.274953,173.667505 548.258299,149.047766 523.416422,138.035705 L332.268654,53.3025417 Z" id="Polygon-Copy-5" stroke="#FF684F" class="inner-ring" stroke-width="24.2467521" opacity="0.499209"></path>
                <path d="M337.398856,30.3681883 C313.590683,19.7787381 286.409317,19.7787381 262.601144,30.3681883 L66.6301133,117.532602 C33.409844,132.308384 12.0033426,165.25806 12.0033426,201.616141 L12.0033426,413.57732 C12.0033426,449.9354 33.409844,482.885076 66.6301133,497.660859 L262.601144,584.825272 C286.409317,595.414722 313.590683,595.414722 337.398856,584.825272 L533.369887,497.660859 C566.590156,482.885076 587.996657,449.9354 587.996657,413.57732 L587.996657,201.616141 C587.996657,165.25806 566.590156,132.308384 533.369887,117.532602 L337.398856,30.3681883 Z" id="Polygon-Copy" stroke="#FF684F" class="outer-ring" stroke-width="24.0066852"></path>
                <text id="VICTORY" font-family="Helvetica-Bold, Helvetica" font-size="51" font-weight="bold" line-spacing="51" letter-spacing="2" fill="#FF684F">
                    <tspan x="181" y="459">VICTORY</tspan>
                </text>
                <polygon id="Rectangle-Copy-62" fill="#FF684F" points="223.962617 161 245.943925 161 304.261682 374 282.280374 374"></polygon>
                <polygon id="Rectangle-Copy-63" fill="#E04126" transform="translate(333.196262, 308.719899) scale(-1, 1) translate(-333.196262, -308.719899) " points="304.261682 243.439797 326.391924 243.439797 362.130841 374 340.157355 374"></polygon>
                <polygon id="Rectangle-Copy-64" fill="#FF684F" transform="translate(377.554754, 227.151312) scale(-1, 1) translate(-377.554754, -227.151312) " points="353.502032 179.472566 375.406042 179.472566 401.607477 274.830057 379.793854 274.830057"></polygon>
                <path d="M201.981308,161 L223.962617,161 L282.280374,374 C269.299701,374 257.922237,365.318863 254.494387,352.798971 L201.981308,161 L201.981308,161 Z" id="Rectangle-Copy-65" fill="#E04126"></path>
                <path d="M245.943925,161 C258.924598,161 270.302062,169.681137 273.729912,182.201029 L326.242991,374 L326.242991,374 L304.261682,374 L245.943925,161 Z" id="Rectangle-Copy-66" fill="#FF9877"></path>
                <path d="M195.400997,150.910946 L213.873563,145.842426 L213.873563,170.437234 C213.873563,181.7436 206.308057,191.651892 195.400997,194.63014 L195.400997,194.63014 L195.400997,194.63014 L195.400997,150.910946 Z" id="Rectangle-Copy-67" fill="#FF684F" transform="translate(204.637280, 170.236283) rotate(-270.000000) translate(-204.637280, -170.236283) "></path>
                <path d="M357.003636,203.211683 C357.95474,214.144284 367.58182,222.24012 378.515542,221.301994 L411.312529,218.487974 L411.312529,218.487974 L414.158037,184.578551 C415.080588,173.584665 406.916158,163.924484 395.922272,163.001932 C395.914671,163.001294 395.90707,163.000661 395.899468,163.000032 L395.899468,163.000032 L395.899468,163.000032 L392.782718,200.141796 L357.003636,203.211683 Z" id="Rectangle-Copy-8" fill="#FF684F" fill-rule="nonzero" transform="translate(386.417007, 193.000032) rotate(-120.000000) translate(-386.417007, -193.000032) "></path>
            </g>
        </g>
    </g>
</svg>