<svg xmlns="http://www.w3.org/2000/svg" xmlns:xlink="http://www.w3.org/1999/xlink" width="1.25em" height="1.25em" preserveAspectRatio="xMidYMid meet" viewBox="0 0 24 24" style="-ms-transform: rotate(360deg); -webkit-transform: rotate(360deg); transform: rotate(360deg);"><path d="M21.959 13.719v7.379h-4.278v-6.885c0-1.73-.619-2.91-2.167-2.91c-1.182 0-1.886.796-2.195 1.565c-.113.275-.142.658-.142 1.043v7.187h-4.28s.058-11.66 0-12.869h4.28v1.824l-.028.042h.028v-.042c.568-.875 1.583-2.126 3.856-2.126c2.815 0 4.926 1.84 4.926 5.792zM4.421 2.026C2.958 2.026 2 2.986 2 4.249c0 1.235.93 2.224 2.365 2.224h.028c1.493 0 2.42-.989 2.42-2.224c-.026-1.263-.926-2.223-2.391-2.223zM2.254 21.098h4.278V8.229H2.254v12.869z" fill="#6c51a4"/><rect x="0" y="0" width="24" height="24" fill="rgba(0, 0, 0, 0)" /></svg>